<?xml version="1.0" encoding="UTF-8"?>
<!DOCTYPE svg PUBLIC "-//W3C//DTD SVG 1.1//EN" "http://www.w3.org/Graphics/SVG/1.1/DTD/svg11.dtd">
<!-- Creator: CorelDRAW -->
<svg xmlns="http://www.w3.org/2000/svg" xml:space="preserve" width="30px" height="30px" version="1.1" style="shape-rendering:geometricPrecision; text-rendering:geometricPrecision; image-rendering:optimizeQuality; fill-rule:evenodd; clip-rule:evenodd"
viewBox="0 0 0.95 0.95"
 xmlns:xlink="http://www.w3.org/1999/xlink"
 xmlns:xodm="http://www.corel.com/coreldraw/odm/2003">
 <defs>
  <style type="text/css">
   <![CDATA[
    .fil0 {fill:#4520AB}
   ]]>
  </style>
 </defs>
 <g id="????_x0020_1">
  <metadata id="CorelCorpID_0Corel-Layer"/>
  <path fill="url(#paint1_linear)" fill-rule="evenodd" d="M202.606 300.603c-8.615-28.187 6.531-60.366 36.506-68.398l309.643-82.969c29.975-8.031 59.181 12.264 65.814 40.982 6.371 27.588 17.095 62.662 33.744 89.141 16.7 26.562 36.732 40.854 62.058 36.589l7.125 26.591c-24.065 8.969-34.268 31.362-35.45 62.716-1.178 31.256 7.072 66.993 15.348 94.07 8.615 28.187-6.531 60.366-36.506 68.398l-309.643 82.969c-29.975 8.031-59.181-12.264-65.814-40.982-6.371-27.587-17.095-62.661-33.744-89.141-16.7-26.562-36.732-40.854-62.058-36.588l-7.125-26.592c24.065-8.969 34.268-31.362 35.45-62.715 1.178-31.257-7.072-66.994-15.348-94.071z" clip-rule="evenodd" filter="url(#filter0_d)"></path>
 </g>
</svg>
