<?xml version="1.0" encoding="UTF-8"?>
<!DOCTYPE svg PUBLIC "-//W3C//DTD SVG 1.1//EN" "http://www.w3.org/Graphics/SVG/1.1/DTD/svg11.dtd">
<!-- Creator: CorelDRAW -->
<svg xmlns="http://www.w3.org/2000/svg" xml:space="preserve" width="402px" height="170px" version="1.1" style="shape-rendering:geometricPrecision; text-rendering:geometricPrecision; image-rendering:optimizeQuality; fill-rule:evenodd; clip-rule:evenodd"
viewBox="0 0 153.66 64.95"
 xmlns:xlink="http://www.w3.org/1999/xlink"
 xmlns:xodm="http://www.corel.com/coreldraw/odm/2003">
 <defs>
  <style type="text/css">
   <![CDATA[
    .fil0 {fill:#00EDFF;fill-rule:nonzero}
    .fil1 {fill:#00EDFF;fill-rule:nonzero}
   ]]>
  </style>
 </defs>
 <g id="????_x0020_1">
  <metadata id="CorelCorpID_0Corel-Layer"/>
  <g id="_105553149533120">
   <path class="fil0" d="M0 64.95l64.95 0 0 -64.95 -64.95 0 0 64.95zm15.67 -53.08l-2.55 0 0 1.85 2.44 0 0 0.65 -2.44 0 0 2.38 2.55 0 0 0.65 -3.2 0 0 -6.18 3.2 0 0 0.65zm9.76 -0.65l0 5.53 1.68 0 0 0.65 -2.39 0 0 -6.18 0.71 0zm12.14 0c0.33,0 0.98,0.06 1.41,0.38 0.22,0.17 0.54,0.54 0.54,1.3 0,0.33 -0.05,0.87 -0.59,1.2 0.86,0.21 1.19,0.97 1.19,1.57 0,0.6 -0.27,1.08 -0.65,1.35 -0.49,0.38 -1.08,0.44 -1.46,0.44l-1.52 0 0 -6.24 1.08 0zm-0.43 2.71l0.54 0c0.38,0 1.19,-0.05 1.19,-1.03 0,-1.03 -0.97,-1.03 -1.19,-1.03l-0.54 0 0 2.06zm0 2.82l0.81 0c0.38,0 0.82,-0.05 1.09,-0.27 0.21,-0.16 0.43,-0.49 0.43,-0.87 0,-0.48 -0.27,-0.75 -0.54,-0.92 -0.22,-0.11 -0.54,-0.16 -1.03,-0.16l-0.71 0 0 2.22 -0.05 0zm12.31 -5.53c0.43,0 1.03,0.06 1.51,0.33 0.38,0.21 0.71,0.7 0.71,1.35 0,0.93 -0.6,1.63 -1.57,1.74l1.95 2.76 -0.82 0 -1.89 -2.71 -0.17 0 0 2.71 -0.7 0 0 -6.18 0.98 0zm-0.28 2.88l0.44 0c0.87,0 1.35,-0.44 1.35,-1.14 0,-0.33 -0.1,-0.71 -0.48,-0.92 -0.28,-0.17 -0.6,-0.17 -0.87,-0.17l-0.44 0 0 2.23zm-36.81 13.06c0,0.54 0,1.09 0.49,1.52 0.27,0.22 0.65,0.38 1.03,0.38 0.38,0 0.76,-0.16 1.03,-0.38 0.49,-0.43 0.49,-0.97 0.49,-1.52l0 -3.79 0.7 0 0 3.96c0,0.54 -0.05,1.03 -0.38,1.46 -0.38,0.49 -1.03,0.81 -1.79,0.81 -0.81,0 -1.46,-0.32 -1.79,-0.81 -0.32,-0.49 -0.37,-0.98 -0.37,-1.46l0 -3.96 0.7 0 0 3.79 -0.11 0zm14.8 -2.55c-0.11,-0.16 -0.21,-0.37 -0.38,-0.48 -0.11,-0.11 -0.32,-0.22 -0.7,-0.22 -0.6,0 -1.03,0.38 -1.03,0.98 0,0.21 0.05,0.38 0.21,0.54 0.17,0.16 0.44,0.27 0.66,0.38l0.59 0.27c0.38,0.16 0.71,0.32 0.98,0.59 0.32,0.33 0.43,0.71 0.43,1.14 0,1.14 -0.87,1.9 -1.95,1.9 -0.43,0 -0.92,-0.11 -1.36,-0.49 -0.32,-0.27 -0.48,-0.7 -0.59,-1.08l0.65 -0.16c0.05,0.32 0.22,0.59 0.38,0.81 0.27,0.27 0.59,0.32 0.87,0.32 0.86,0 1.24,-0.59 1.24,-1.24 0,-0.27 -0.11,-0.54 -0.32,-0.71 -0.17,-0.16 -0.44,-0.27 -0.76,-0.43l-0.54 -0.27c-0.22,-0.11 -0.55,-0.22 -0.82,-0.49 -0.27,-0.27 -0.43,-0.54 -0.43,-1.03 0,-0.98 0.76,-1.57 1.73,-1.57 0.38,0 0.71,0.05 0.98,0.27 0.27,0.16 0.49,0.43 0.6,0.7l-0.44 0.27zm12.8 -2l0.54 0.27 -4.66 8.35 -0.54 -0.27 4.66 -8.35zm-26.24 12.96c0.32,0 0.97,0.05 1.41,0.38 0.21,0.16 0.54,0.54 0.54,1.3 0,0.32 -0.06,0.86 -0.6,1.19 0.87,0.22 1.19,0.98 1.19,1.57 0,0.6 -0.27,1.09 -0.65,1.36 -0.43,0.38 -1.03,0.38 -1.46,0.38l-1.52 0 0 -6.18 1.09 0zm-0.44 2.71l0.55 0c0.37,0 1.19,-0.06 1.19,-1.03 0,-1.03 -0.98,-1.03 -1.19,-1.03l-0.55 0 0 2.06zm0 2.82l0.82 0c0.38,0 0.81,-0.06 1.08,-0.27 0.22,-0.17 0.43,-0.49 0.43,-0.87 0,-0.49 -0.27,-0.76 -0.54,-0.92 -0.21,-0.11 -0.54,-0.17 -1.03,-0.17l-0.7 0 0 2.23 -0.06 0zm11.28 -0.17c-0.43,-0.59 -0.6,-1.41 -0.6,-2.27 0,-0.87 0.22,-1.68 0.6,-2.28 0.49,-0.71 1.08,-0.92 1.57,-0.92 0.49,0 1.14,0.21 1.58,0.92 0.43,0.6 0.59,1.41 0.59,2.28 0,0.86 -0.22,1.68 -0.59,2.27 -0.49,0.71 -1.09,0.93 -1.58,0.93 -0.49,0 -1.14,-0.22 -1.57,-0.93zm0.49 -4.12c-0.33,0.55 -0.44,1.25 -0.44,1.9 0,0.65 0.11,1.36 0.44,1.9 0.32,0.54 0.76,0.7 1.08,0.7 0.33,0 0.76,-0.16 1.09,-0.7 0.32,-0.54 0.43,-1.25 0.43,-1.9 0,-0.65 -0.11,-1.35 -0.43,-1.9 -0.33,-0.54 -0.76,-0.7 -1.09,-0.7 -0.32,0 -0.76,0.16 -1.08,0.7zm11.44 4.12c-0.44,-0.59 -0.6,-1.41 -0.6,-2.27 0,-0.87 0.22,-1.68 0.6,-2.28 0.49,-0.71 1.08,-0.92 1.57,-0.92 0.49,0 1.14,0.21 1.57,0.92 0.44,0.6 0.6,1.41 0.6,2.28 0,0.86 -0.22,1.68 -0.6,2.27 -0.49,0.71 -1.08,0.93 -1.57,0.93 -0.49,0 -1.08,-0.22 -1.57,-0.93zm0.54 -4.12c-0.32,0.55 -0.43,1.25 -0.43,1.9 0,0.65 0.1,1.36 0.43,1.9 0.33,0.54 0.76,0.7 1.08,0.7 0.33,0 0.76,-0.16 1.09,-0.7 0.32,-0.54 0.43,-1.25 0.43,-1.9 0,-0.65 -0.11,-1.35 -0.43,-1.9 -0.33,-0.54 -0.76,-0.7 -1.09,-0.7 -0.32,0 -0.75,0.16 -1.08,0.7zm13.5 -0.59l0 5.53 -0.7 0 0 -5.53 -1.52 0 0 -0.65 3.68 0 0 0.65 -1.46 0zm-34.1 12.9c-0.22,-0.22 -0.49,-0.43 -0.82,-0.6 -0.32,-0.16 -0.7,-0.21 -1.08,-0.21 -1.41,0 -2.49,1.14 -2.49,2.6 0,1.68 1.35,2.55 2.49,2.55 0.43,0 0.81,-0.11 1.14,-0.27 0.38,-0.17 0.59,-0.44 0.7,-0.55l0 0.87c-0.7,0.49 -1.41,0.6 -1.84,0.6 -1.84,0 -3.2,-1.41 -3.2,-3.2 0,-1.84 1.41,-3.2 3.25,-3.2 0.38,0 1.09,0.06 1.85,0.6l0 0.81zm11 3.09l-2.65 0 -0.76 1.74 -0.71 0 2.88 -6.51 2.76 6.51 -0.76 0 -0.76 -1.74zm-0.27 -0.65l-1.03 -2.49 -1.08 2.49 2.11 0zm7.76 2.39l1.03 -6.56 2.38 5.2 2.44 -5.26 0.98 6.56 -0.71 0 -0.59 -4.28 -2.12 4.55 -2.06 -4.55 -0.6 4.28 -0.75 0 0 0.06zm14.96 -6.18c0.6,0 1.14,0.05 1.57,0.43 0.44,0.38 0.54,0.92 0.54,1.3 0,0.87 -0.54,1.74 -1.95,1.74l-0.59 0 0 2.71 -0.71 0 0 -6.18 1.14 0zm-0.43 2.81l0.54 0c0.81,0 1.3,-0.43 1.3,-1.13 0,-0.98 -0.92,-1.09 -1.36,-1.09l-0.48 0 0 2.22z"/>
   <path class="fil1" d="M88.45 24.64l0 2.43 -9.28 0 0 -15.15 9.07 0 0 2.43 -6.51 0 0 3.78 5.55 0 0 2.43 -5.55 0 0 4.08 6.72 0zm13.46 0l0 2.43 -9.22 0 0 -15.15 2.56 0 0 12.72 6.66 0zm11.03 -5.43c0.59,0.34 1.05,0.79 1.37,1.36 0.31,0.57 0.47,1.24 0.47,2.02 0,0.86 -0.19,1.64 -0.57,2.31 -0.38,0.68 -0.92,1.21 -1.61,1.59 -0.7,0.39 -1.48,0.58 -2.36,0.58l-5.41 0 0 -15.15 5.08 0c0.88,0 1.67,0.19 2.36,0.57 0.69,0.37 1.23,0.89 1.61,1.54 0.39,0.66 0.58,1.39 0.58,2.2 0,0.66 -0.13,1.25 -0.39,1.75 -0.26,0.51 -0.64,0.92 -1.13,1.23zm-5.56 -4.86l0 3.78 2.17 0c0.77,0 1.36,-0.17 1.76,-0.52 0.4,-0.34 0.59,-0.8 0.59,-1.38 0,-0.56 -0.19,-1.02 -0.59,-1.36 -0.4,-0.35 -0.99,-0.52 -1.76,-0.52l-2.17 0zm2.49 10.29c0.79,0 1.38,-0.18 1.77,-0.54 0.39,-0.36 0.59,-0.86 0.59,-1.51 0,-0.64 -0.2,-1.13 -0.59,-1.49 -0.39,-0.36 -0.98,-0.54 -1.77,-0.54l-2.49 0 0 4.08 2.49 0zm12.42 -3.24l-2.08 0 0 5.67 -2.55 0 0 -15.15 5.62 0c0.88,0 1.67,0.21 2.36,0.62 0.69,0.41 1.23,0.98 1.61,1.7 0.38,0.72 0.58,1.53 0.58,2.42 0,1.05 -0.26,1.98 -0.78,2.77 -0.52,0.79 -1.23,1.36 -2.12,1.69l3.13 5.95 -3.05 0 -2.72 -5.67zm-2.08 -2.42l2.71 0c0.77,0 1.36,-0.21 1.76,-0.63 0.39,-0.42 0.59,-0.98 0.59,-1.69 0,-0.7 -0.2,-1.27 -0.59,-1.69 -0.4,-0.41 -0.99,-0.62 -1.76,-0.62l-2.71 0 0 4.63zm20.14 -7.06l0 10.37c0,0.92 -0.19,1.76 -0.58,2.53 -0.39,0.76 -0.96,1.36 -1.7,1.8 -0.74,0.44 -1.63,0.66 -2.65,0.66 -1.02,0 -1.91,-0.22 -2.65,-0.66 -0.74,-0.44 -1.31,-1.04 -1.7,-1.8 -0.39,-0.77 -0.58,-1.61 -0.58,-2.53l0 -10.37 2.55 0 0 10.13c0,0.86 0.21,1.55 0.62,2.05 0.41,0.51 0.99,0.76 1.76,0.76 0.76,0 1.35,-0.25 1.76,-0.76 0.41,-0.5 0.62,-1.19 0.62,-2.05l0 -10.13 2.55 0zm10.6 7.29c1.8,0.9 2.71,2.17 2.71,3.81 0,1.31 -0.45,2.35 -1.35,3.12 -0.89,0.76 -2.14,1.14 -3.74,1.14 -1.09,0 -2.18,-0.24 -3.26,-0.72 -1.09,-0.48 -1.87,-1.18 -2.36,-2.09l1.86 -1.56c0.34,0.61 0.87,1.09 1.57,1.43 0.7,0.35 1.43,0.52 2.19,0.52 0.84,0 1.47,-0.15 1.9,-0.46 0.42,-0.31 0.63,-0.75 0.63,-1.31 0,-0.39 -0.1,-0.72 -0.31,-1 -0.21,-0.27 -0.54,-0.52 -0.98,-0.73l-3.86 -1.93c-0.83,-0.42 -1.46,-0.94 -1.89,-1.56 -0.42,-0.62 -0.64,-1.37 -0.64,-2.25 0,-1.18 0.46,-2.13 1.38,-2.84 0.91,-0.72 2.16,-1.07 3.75,-1.07 1.04,0 2,0.19 2.89,0.58 0.89,0.39 1.59,0.95 2.11,1.67l-1.8 1.62c-0.34,-0.46 -0.81,-0.82 -1.39,-1.07 -0.59,-0.25 -1.19,-0.38 -1.81,-0.38 -0.81,0 -1.44,0.14 -1.89,0.43 -0.46,0.29 -0.68,0.67 -0.68,1.15 0,0.68 0.37,1.2 1.12,1.58l3.85 1.92zm-68.53 18.67c1.3,0 2.44,0.29 3.43,0.87 0.98,0.58 1.76,1.43 2.31,2.56 0.56,1.14 0.83,2.52 0.83,4.15 0,1.63 -0.27,3.01 -0.83,4.14 -0.55,1.13 -1.33,1.99 -2.31,2.56 -0.99,0.58 -2.13,0.87 -3.43,0.87l-3.92 0 0 -15.15 3.92 0zm-0.28 12.72c1.34,0 2.39,-0.43 3.15,-1.3 0.77,-0.88 1.15,-2.16 1.15,-3.84 0,-1.68 -0.39,-2.95 -1.17,-3.83 -0.78,-0.88 -1.82,-1.32 -3.13,-1.32l-1.09 0 0 10.29 1.09 0zm19.29 0l0 2.43 -9.28 0 0 -15.15 9.07 0 0 2.43 -6.51 0 0 3.78 5.55 0 0 2.43 -5.55 0 0 4.08 6.72 0zm10.58 -5.43c1.8,0.9 2.71,2.17 2.71,3.81 0,1.31 -0.45,2.35 -1.35,3.12 -0.89,0.76 -2.14,1.14 -3.74,1.14 -1.09,0 -2.18,-0.24 -3.26,-0.72 -1.09,-0.48 -1.87,-1.18 -2.36,-2.09l1.86 -1.56c0.34,0.61 0.87,1.09 1.57,1.43 0.7,0.35 1.43,0.52 2.19,0.52 0.84,0 1.47,-0.15 1.89,-0.46 0.43,-0.31 0.64,-0.75 0.64,-1.31 0,-0.39 -0.1,-0.72 -0.31,-1 -0.21,-0.27 -0.54,-0.52 -0.98,-0.73l-3.86 -1.93c-0.83,-0.42 -1.46,-0.94 -1.89,-1.56 -0.42,-0.62 -0.64,-1.37 -0.64,-2.25 0,-1.18 0.46,-2.13 1.38,-2.84 0.91,-0.71 2.16,-1.07 3.75,-1.07 1.04,0 2,0.19 2.89,0.58 0.89,0.39 1.59,0.95 2.11,1.67l-1.8 1.62c-0.34,-0.46 -0.81,-0.82 -1.39,-1.07 -0.59,-0.25 -1.19,-0.38 -1.81,-0.38 -0.81,0 -1.44,0.14 -1.89,0.43 -0.46,0.29 -0.68,0.67 -0.68,1.15 0,0.68 0.37,1.2 1.12,1.58l3.85 1.92zm13.63 7.86l-3.68 -6.8 -1.58 2.04 0 4.76 -2.55 0 0 -15.15 2.55 0 0 6.62 4.78 -6.62 3.31 0 -4.88 6.28 5.17 8.87 -3.12 0z"/>
  </g>
 </g>
</svg>
