<?xml version="1.0" encoding="UTF-8"?>
<!DOCTYPE svg PUBLIC "-//W3C//DTD SVG 1.1//EN" "http://www.w3.org/Graphics/SVG/1.1/DTD/svg11.dtd">
<!-- Creator: CorelDRAW -->
<svg xmlns="http://www.w3.org/2000/svg" xml:space="preserve" width="30px" height="25px" version="1.1" style="shape-rendering:geometricPrecision; text-rendering:geometricPrecision; image-rendering:optimizeQuality; fill-rule:evenodd; clip-rule:evenodd"
viewBox="0 0 30 25.2"
 xmlns:xlink="http://www.w3.org/1999/xlink"
 xmlns:xodm="http://www.corel.com/coreldraw/odm/2003">
 <defs>
  <style type="text/css">
   <![CDATA[
    .fil0 {fill:#4520AB;fill-rule:nonzero}
   ]]>
  </style>
 </defs>
 <g id="????_x0020_1">
  <metadata id="CorelCorpID_0Corel-Layer"/>
  <g id="_105553241314176">
   <path class="fil0" d="M26.78 3.51l-5.87 0 -0.57 -1.71c-0.36,-1.08 -1.37,-1.8 -2.51,-1.8l-5.66 0c-1.14,0 -2.15,0.72 -2.51,1.8l-0.57 1.72 -1.41 -0.01 0 -1.46c0,-1.13 -0.92,-2.05 -2.06,-2.05l-1.17 0c-1.13,0 -2.05,0.92 -2.05,2.05l0 1.57c-1.38,0.37 -2.4,1.63 -2.4,3.12l0 15.23c0,1.78 1.45,3.23 3.22,3.23l23.56 0c1.77,0 3.22,-1.45 3.22,-3.23l0 -15.23c0,-1.78 -1.45,-3.23 -3.22,-3.23l0 0zm-22.62 -1.46c0,-0.16 0.13,-0.29 0.29,-0.29l1.17 0c0.17,0 0.3,0.13 0.3,0.29l0 1.47 -1.76 -0.01 0 -1.46zm24.08 19.92c0,0.81 -0.66,1.47 -1.46,1.47l-23.56 0c-0.8,0 -1.46,-0.66 -1.46,-1.47l0 -15.23c0,-0.81 0.66,-1.47 1.46,-1.47l6.51 0c0.37,0 0.71,-0.24 0.83,-0.6l0.77 -2.31c0.12,-0.36 0.46,-0.6 0.84,-0.6l5.66 0c0.38,0 0.72,0.24 0.84,0.6l0.77 2.31c0.12,0.36 0.45,0.6 0.83,0.6l6.51 0c0.8,0 1.46,0.66 1.46,1.47l0 15.23z"/>
   <circle class="fil0" cx="25.55" cy="7.91" r="0.88"/>
   <path class="fil0" d="M6.21 7.03l-1.76 0c-0.48,0 -0.88,0.39 -0.88,0.88 0,0.49 0.4,0.88 0.88,0.88l1.76 0c0.49,0 0.88,-0.39 0.88,-0.88 0,-0.49 -0.39,-0.88 -0.88,-0.88l0 0z"/>
   <g>
    <path class="fil0" d="M15 21.68c-4.36,0 -7.91,-3.55 -7.91,-7.91 0,-4.36 3.55,-7.91 7.91,-7.91 4.36,0 7.91,3.55 7.91,7.91 0,4.36 -3.55,7.91 -7.91,7.91zm0 -14.06c-3.39,0 -6.15,2.76 -6.15,6.15 0,3.39 2.76,6.15 6.15,6.15 3.39,0 6.15,-2.76 6.15,-6.15 0,-3.39 -2.76,-6.15 -6.15,-6.15z"/>
   </g>
   <g>
    <path class="fil0" d="M15 18.16c-2.42,0 -4.39,-1.97 -4.39,-4.39 0,-2.42 1.97,-4.39 4.39,-4.39 2.42,0 4.39,1.97 4.39,4.39 0,2.42 -1.97,4.39 -4.39,4.39zm0 -7.03c-1.45,0 -2.64,1.19 -2.64,2.64 0,1.45 1.19,2.64 2.64,2.64 1.45,0 2.64,-1.19 2.64,-2.64 0,-1.45 -1.19,-2.64 -2.64,-2.64z"/>
   </g>
  </g>
 </g>
</svg>
