<?xml version="1.0" encoding="UTF-8"?>
<!DOCTYPE svg PUBLIC "-//W3C//DTD SVG 1.1//EN" "http://www.w3.org/Graphics/SVG/1.1/DTD/svg11.dtd">
<!-- Creator: CorelDRAW -->
<svg xmlns="http://www.w3.org/2000/svg" xml:space="preserve" width="386px" height="386px" version="1.1" style="shape-rendering:geometricPrecision; text-rendering:geometricPrecision; image-rendering:optimizeQuality; fill-rule:evenodd; clip-rule:evenodd"
viewBox="0 0 194.72 194.71"
 xmlns:xlink="http://www.w3.org/1999/xlink"
 xmlns:xodm="http://www.corel.com/coreldraw/odm/2003">
 <defs>
  <style type="text/css">
   <![CDATA[
    .fil0 {fill:#00EDFF;fill-rule:nonzero}
    .fil2 {fill:#00EDFF;fill-rule:nonzero}
    .fil1 {fill:#4520AB;fill-rule:nonzero}
   ]]>
  </style>
 </defs>
 <g id="????_x0020_1">
  <metadata id="CorelCorpID_0Corel-Layer"/>
  <polygon class="fil0" points="0,194.71 194.72,194.71 194.72,0 0,0 "/>
  <path class="fil1" d="M118.83 158.97c10.56,0 19.86,-2.35 27.9,-7.04 8.04,-4.7 14.32,-11.65 18.84,-20.86 4.52,-9.21 6.77,-20.45 6.77,-33.71 0,-13.26 -2.25,-24.5 -6.77,-33.71 -4.52,-9.21 -10.8,-16.17 -18.84,-20.86 -8.04,-4.7 -17.34,-7.04 -27.9,-7.04l-11.09 0 -20.77 0 -11.09 0c-10.56,0 -19.86,2.34 -27.9,7.04 -8.04,4.69 -14.32,11.65 -18.84,20.86 -4.52,9.21 -6.77,20.45 -6.77,33.71 0,13.26 2.25,24.5 6.77,33.71 4.52,9.21 10.8,16.16 18.84,20.86 8.04,4.69 17.34,7.04 27.9,7.04l11.09 0 20.77 0 11.09 0zm-31.86 -103.51l0 83.79 -8.8 0c-10.68,0 -19.19,-3.58 -25.53,-10.74 -6.33,-7.15 -9.5,-17.54 -9.5,-31.15 0,-13.73 3.11,-24.15 9.33,-31.25 6.22,-7.1 14.78,-10.65 25.7,-10.65l8.8 0zm29.57 0c10.92,0 19.48,3.55 25.7,10.65 6.22,7.1 9.33,17.52 9.33,31.25 0,13.61 -3.17,24 -9.5,31.15 -6.34,7.16 -14.85,10.74 -25.53,10.74l-8.8 0 0 -83.79 8.8 0z"/>
  <path class="fil2" d="M91.97 148.15c0,-1.73 0.52,-3.1 1.56,-4.09 1.04,-1 2.31,-1.49 3.83,-1.49 1.47,0 2.73,0.53 3.79,1.59 1.06,1.06 1.59,2.43 1.59,4.12 0,1.72 -0.52,3.09 -1.56,4.08 -1.04,1 -2.31,1.49 -3.82,1.49 -1.47,0 -2.74,-0.53 -3.8,-1.59 -1.06,-1.06 -1.59,-2.43 -1.59,-4.11z"/>
 </g>
</svg>
