<?xml version="1.0" encoding="UTF-8"?>
<!DOCTYPE svg PUBLIC "-//W3C//DTD SVG 1.1//EN" "http://www.w3.org/Graphics/SVG/1.1/DTD/svg11.dtd">
<!-- Creator: CorelDRAW -->
<svg xmlns="http://www.w3.org/2000/svg" xml:space="preserve" width="764px" height="484px" version="1.1" style="shape-rendering:geometricPrecision; text-rendering:geometricPrecision; image-rendering:optimizeQuality; fill-rule:evenodd; clip-rule:evenodd"
viewBox="0 0 764 483.74"
 xmlns:xlink="http://www.w3.org/1999/xlink"
 xmlns:xodm="http://www.corel.com/coreldraw/odm/2003">
 <defs>
  <style type="text/css">
   <![CDATA[
    .fil2 {fill:#00EDFF}
    .fil0 {fill:#00EDFF;fill-rule:nonzero}
    .fil1 {fill:#FFBC5B;fill-rule:nonzero}
   ]]>
  </style>
 </defs>
 <g id="????_x0020_1">
  <metadata id="CorelCorpID_0Corel-Layer"/>
  <path class="fil0" d="M529.71 145.2c-3.08,5.56 -7.04,9.73 -11.87,12.51 -4.84,2.78 -10.34,4.17 -16.5,4.17 -6.24,0 -12.17,-1.71 -17.77,-5.13 -5.61,-3.42 -10.19,-8.62 -13.74,-15.6 -3.55,-6.97 -5.32,-15.46 -5.32,-25.47 0,-10.1 1.71,-18.61 5.13,-25.54 3.42,-6.94 7.87,-12.11 13.35,-15.54 5.48,-3.42 11.29,-5.13 17.46,-5.13 5.39,0 10.33,1.16 14.82,3.47 4.49,2.31 8.32,5.6 11.49,9.88l-10.66 9.63c-2.14,-2.74 -4.51,-4.86 -7.12,-6.36 -2.61,-1.49 -5.28,-2.24 -8.02,-2.24 -3.59,0 -7.02,1.19 -10.27,3.59 -3.25,2.4 -5.9,5.99 -7.96,10.78 -2.05,4.79 -3.08,10.61 -3.08,17.46 0,6.84 1.11,12.66 3.34,17.45 2.22,4.8 5.07,8.39 8.53,10.79 3.47,2.39 6.96,3.59 10.47,3.59 6.84,0 12.4,-3.85 16.68,-11.55l11.04 9.24zm42.74 -75.73c6.16,0 11.77,1.67 16.81,5.01 5.05,3.33 9.07,8.47 12.07,15.4 2.99,6.93 4.49,15.53 4.49,25.8 0,10.27 -1.5,18.87 -4.49,25.8 -3,6.93 -7.02,12.06 -12.07,15.4 -5.04,3.34 -10.65,5 -16.81,5 -6.16,0 -11.77,-1.66 -16.81,-5 -5.05,-3.34 -9.07,-8.47 -12.07,-15.4 -2.99,-6.93 -4.49,-15.53 -4.49,-25.8 0,-10.27 1.5,-18.87 4.49,-25.8 3,-6.93 7.02,-12.07 12.07,-15.4 5.04,-3.34 10.65,-5.01 16.81,-5.01zm0 78.04c3.42,0 6.5,-1.18 9.24,-3.53 2.74,-2.35 4.92,-5.93 6.55,-10.72 1.62,-4.79 2.44,-10.65 2.44,-17.58 0,-6.93 -0.84,-12.79 -2.51,-17.59 -1.66,-4.79 -3.89,-8.36 -6.67,-10.71 -2.78,-2.36 -5.8,-3.53 -9.05,-3.53 -3.42,0 -6.5,1.17 -9.24,3.53 -2.74,2.35 -4.92,5.92 -6.55,10.71 -1.62,4.8 -2.44,10.66 -2.44,17.59 0,6.93 0.84,12.79 2.51,17.58 1.67,4.79 3.89,8.37 6.67,10.72 2.78,2.35 5.8,3.53 9.05,3.53zm109.1 13.09l-15.15 0 0 -71.62 -10.14 46.59 -13.6 0 -10.14 -46.59 0 71.62 -15.15 0 0 -89.85 22.85 0 9.5 51.09 9.5 -51.09 22.33 0 0 89.85zm34.27 -10.01c0,-3.42 1.03,-6.12 3.08,-8.09 2.05,-1.97 4.58,-2.95 7.57,-2.95 2.91,0 5.41,1.05 7.51,3.15 2.1,2.09 3.15,4.81 3.15,8.15 0,3.42 -1.03,6.11 -3.08,8.08 -2.06,1.97 -4.58,2.95 -7.58,2.95 -2.91,0 -5.41,-1.04 -7.51,-3.14 -2.09,-2.1 -3.14,-4.81 -3.14,-8.15zm-226.8 74.19c7.7,0 14.48,1.71 20.35,5.13 5.86,3.42 10.44,8.49 13.73,15.21 3.29,6.72 4.94,14.91 4.94,24.58 0,9.67 -1.65,17.86 -4.94,24.58 -3.29,6.72 -7.87,11.79 -13.73,15.21 -5.87,3.42 -12.65,5.13 -20.35,5.13l-23.23 0 0 -89.84 23.23 0zm-1.67 75.47c7.96,0 14.21,-2.59 18.74,-7.77 4.54,-5.18 6.81,-12.77 6.81,-22.78 0,-9.93 -2.31,-17.5 -6.94,-22.72 -4.62,-5.22 -10.82,-7.83 -18.61,-7.83l-6.41 0 0 61.1 6.41 0zm114.49 0l0 14.37 -55.06 0 0 -89.84 53.78 0 0 14.37 -38.63 0 0 22.46 32.98 0 0 14.38 -32.98 0 0 24.26 39.91 0zm62.77 -32.22c10.69,5.31 16.04,12.84 16.04,22.59 0,7.79 -2.65,13.95 -7.96,18.48 -5.3,4.54 -12.7,6.81 -22.2,6.81 -6.5,0 -12.97,-1.44 -19.38,-4.3 -6.42,-2.87 -11.08,-7 -13.99,-12.39l11.03 -9.24c2.06,3.59 5.16,6.42 9.31,8.47 4.15,2.05 8.49,3.08 13.03,3.08 4.96,0 8.7,-0.92 11.23,-2.76 2.52,-1.84 3.79,-4.43 3.79,-7.76 0,-2.31 -0.63,-4.28 -1.87,-5.91 -1.24,-1.62 -3.18,-3.08 -5.84,-4.36l-22.84 -11.43c-4.97,-2.48 -8.71,-5.56 -11.23,-9.24 -2.53,-3.68 -3.79,-8.13 -3.79,-13.35 0,-7.01 2.72,-12.64 8.15,-16.87 5.43,-4.24 12.86,-6.36 22.27,-6.36 6.16,0 11.87,1.16 17.13,3.47 5.27,2.31 9.44,5.6 12.52,9.88l-10.65 9.63c-2.06,-2.74 -4.82,-4.86 -8.28,-6.36 -3.47,-1.49 -7.04,-2.24 -10.72,-2.24 -4.79,0 -8.54,0.85 -11.23,2.57 -2.7,1.71 -4.04,3.97 -4.04,6.8 0,4.02 2.22,7.14 6.67,9.37l22.85 11.42zm80.86 46.59l-21.82 -40.3 -9.37 12.07 0 28.23 -15.15 0 0 -89.84 15.15 0 0 39.27 28.36 -39.27 19.64 0 -29 37.22 30.67 52.62 -18.48 0z"/>
  <path class="fil0" d="M182.04 293.21c0,-3.42 1.02,-6.12 3.08,-8.09 2.05,-1.97 4.57,-2.95 7.57,-2.95 2.91,0 5.41,1.05 7.51,3.15 2.1,2.09 3.14,4.81 3.14,8.15 0,3.42 -1.02,6.12 -3.08,8.08 -2.05,1.97 -4.57,2.96 -7.57,2.96 -2.91,0 -5.41,-1.05 -7.51,-3.15 -2.1,-2.09 -3.14,-4.81 -3.14,-8.15z"/>
  <path class="fil1" d="M10.55 442.33c3.5,0 6.58,0.78 9.25,2.34 2.66,1.55 4.74,3.86 6.24,6.91 1.49,3.05 2.24,6.77 2.24,11.16 0,4.4 -0.75,8.12 -2.24,11.17 -1.5,3.05 -3.58,5.36 -6.24,6.91 -2.67,1.56 -5.75,2.33 -9.25,2.33l-10.55 0 0 -40.82 10.55 0zm-0.75 34.29c3.61,0 6.45,-1.17 8.51,-3.53 2.06,-2.35 3.09,-5.8 3.09,-10.35 0,-4.51 -1.05,-7.95 -3.15,-10.32 -2.1,-2.37 -4.92,-3.55 -8.45,-3.55l-2.92 0 0 27.75 2.92 0zm52.01 0l0 6.53 -25.02 0 0 -40.82 24.44 0 0 6.54 -17.55 0 0 10.2 14.98 0 0 6.53 -14.98 0 0 11.02 18.13 0zm36.85 -34.29l-9.68 40.82 -11.08 0 -9.68 -40.82 7.12 0 8.16 35.28 8.17 -35.28 6.99 0zm33.12 34.29l0 6.53 -25.01 0 0 -40.82 24.43 0 0 6.54 -17.55 0 0 10.2 14.99 0 0 6.53 -14.99 0 0 11.02 18.13 0zm36.27 0l0 6.53 -24.84 0 0 -40.82 6.88 0 0 34.29 17.96 0zm20.36 -34.87c2.79,0 5.34,0.76 7.63,2.28 2.3,1.51 4.13,3.84 5.49,6.99 1.36,3.15 2.04,7.06 2.04,11.72 0,4.67 -0.68,8.58 -2.04,11.72 -1.36,3.15 -3.19,5.49 -5.49,7 -2.29,1.52 -4.84,2.28 -7.63,2.28 -2.8,0 -5.35,-0.76 -7.64,-2.28 -2.3,-1.51 -4.12,-3.85 -5.49,-7 -1.36,-3.14 -2.04,-7.05 -2.04,-11.72 0,-4.66 0.68,-8.57 2.04,-11.72 1.37,-3.15 3.19,-5.48 5.49,-6.99 2.29,-1.52 4.84,-2.28 7.64,-2.28zm0 35.46c1.55,0 2.95,-0.54 4.19,-1.61 1.25,-1.07 2.24,-2.69 2.98,-4.87 0.74,-2.17 1.11,-4.84 1.11,-7.99 0,-3.14 -0.38,-5.81 -1.14,-7.98 -0.76,-2.18 -1.77,-3.8 -3.03,-4.87 -1.27,-1.07 -2.64,-1.61 -4.11,-1.61 -1.56,0 -2.96,0.54 -4.2,1.61 -1.25,1.07 -2.24,2.69 -2.98,4.87 -0.74,2.17 -1.11,4.84 -1.11,7.98 0,3.15 0.38,5.82 1.14,7.99 0.76,2.18 1.77,3.8 3.03,4.87 1.27,1.07 2.64,1.61 4.12,1.61zm36.79 -34.88c3.96,0 7.11,1.18 9.45,3.53 2.33,2.35 3.5,5.53 3.5,9.54 0,4 -1.17,7.18 -3.5,9.53 -2.34,2.35 -5.49,3.53 -9.45,3.53l-7.81 0 0 14.69 -6.88 0 0 -40.82 14.69 0zm-0.99 19.6c2.41,0 4.19,-0.58 5.33,-1.72 1.15,-1.15 1.72,-2.75 1.72,-4.81 0,-2.06 -0.57,-3.67 -1.72,-4.81 -1.14,-1.15 -2.92,-1.72 -5.33,-1.72l-6.82 0 0 13.06 6.82 0zm84.96 -19.6l-12.36 26.13 0 14.69 -6.88 0 0 -14.69 -12.37 -26.13 7.76 0 8.16 18.96 8.11 -18.96 7.58 0zm19.18 -0.58c2.8,0 5.35,0.76 7.64,2.28 2.3,1.51 4.12,3.84 5.48,6.99 1.36,3.15 2.04,7.06 2.04,11.72 0,4.67 -0.68,8.58 -2.04,11.72 -1.36,3.15 -3.18,5.49 -5.48,7 -2.29,1.52 -4.84,2.28 -7.64,2.28 -2.8,0 -5.34,-0.76 -7.64,-2.28 -2.29,-1.51 -4.12,-3.85 -5.48,-7 -1.36,-3.14 -2.04,-7.05 -2.04,-11.72 0,-4.66 0.68,-8.57 2.04,-11.72 1.36,-3.15 3.19,-5.48 5.48,-6.99 2.3,-1.52 4.84,-2.28 7.64,-2.28zm0 35.46c1.56,0 2.96,-0.54 4.2,-1.61 1.25,-1.07 2.24,-2.69 2.98,-4.87 0.73,-2.17 1.1,-4.84 1.1,-7.99 0,-3.14 -0.38,-5.81 -1.13,-7.98 -0.76,-2.18 -1.77,-3.8 -3.04,-4.87 -1.26,-1.07 -2.63,-1.61 -4.11,-1.61 -1.55,0 -2.95,0.54 -4.19,1.61 -1.25,1.07 -2.24,2.69 -2.98,4.87 -0.74,2.17 -1.11,4.84 -1.11,7.98 0,3.15 0.38,5.82 1.14,7.99 0.76,2.18 1.77,3.8 3.03,4.87 1.27,1.07 2.64,1.61 4.11,1.61zm48.29 -34.88l0 27.94c0,2.48 -0.53,4.76 -1.58,6.82 -1.05,2.06 -2.57,3.68 -4.58,4.87 -2,1.18 -4.38,1.78 -7.14,1.78 -2.76,0 -5.14,-0.6 -7.14,-1.78 -2,-1.19 -3.53,-2.81 -4.58,-4.87 -1.05,-2.06 -1.58,-4.34 -1.58,-6.82l0 -27.94 6.89 0 0 27.3c0,2.33 0.55,4.17 1.66,5.53 1.11,1.37 2.69,2.05 4.75,2.05 2.06,0 3.65,-0.68 4.75,-2.05 1.11,-1.36 1.66,-3.2 1.66,-5.53l0 -27.3 6.89 0zm21.28 25.55l-5.6 0 0 15.27 -6.88 0 0 -40.82 15.16 0c2.37,0 4.49,0.56 6.36,1.67 1.86,1.1 3.31,2.63 4.34,4.57 1.03,1.95 1.55,4.12 1.55,6.54 0,2.83 -0.7,5.32 -2.1,7.46 -1.4,2.14 -3.31,3.65 -5.72,4.55l8.46 16.03 -8.22 0 -7.35 -15.27zm-5.6 -6.53l7.29 0c2.1,0 3.68,-0.57 4.75,-1.7 1.07,-1.12 1.61,-2.64 1.61,-4.54 0,-1.91 -0.54,-3.43 -1.61,-4.55 -1.07,-1.13 -2.65,-1.69 -4.75,-1.69l-7.29 0 0 12.48zm91.55 14.81c-1.4,2.52 -3.2,4.42 -5.39,5.68 -2.2,1.26 -4.7,1.9 -7.5,1.9 -2.83,0 -5.53,-0.78 -8.07,-2.34 -2.55,-1.55 -4.63,-3.91 -6.24,-7.08 -1.62,-3.17 -2.42,-7.03 -2.42,-11.58 0,-4.58 0.77,-8.45 2.33,-11.6 1.56,-3.15 3.58,-5.5 6.07,-7.06 2.48,-1.55 5.13,-2.33 7.93,-2.33 2.44,0 4.69,0.53 6.73,1.58 2.04,1.05 3.78,2.54 5.22,4.49l-4.84 4.37c-0.97,-1.24 -2.05,-2.21 -3.24,-2.89 -1.18,-0.68 -2.4,-1.02 -3.64,-1.02 -1.63,0 -3.19,0.55 -4.67,1.63 -1.47,1.09 -2.68,2.73 -3.61,4.9 -0.93,2.18 -1.4,4.82 -1.4,7.93 0,3.11 0.5,5.76 1.52,7.93 1.01,2.18 2.3,3.81 3.87,4.9 1.58,1.09 3.16,1.64 4.76,1.64 3.11,0 5.63,-1.75 7.58,-5.25l5.01 4.2zm19.42 -34.41c2.8,0 5.34,0.76 7.64,2.28 2.29,1.51 4.12,3.84 5.48,6.99 1.36,3.15 2.04,7.06 2.04,11.72 0,4.67 -0.68,8.58 -2.04,11.72 -1.36,3.15 -3.19,5.49 -5.48,7 -2.3,1.52 -4.84,2.28 -7.64,2.28 -2.8,0 -5.35,-0.76 -7.64,-2.28 -2.29,-1.51 -4.12,-3.85 -5.48,-7 -1.36,-3.14 -2.04,-7.05 -2.04,-11.72 0,-4.66 0.68,-8.57 2.04,-11.72 1.36,-3.15 3.19,-5.48 5.48,-6.99 2.29,-1.52 4.84,-2.28 7.64,-2.28zm0 35.46c1.55,0 2.95,-0.54 4.2,-1.61 1.24,-1.07 2.23,-2.69 2.97,-4.87 0.74,-2.17 1.11,-4.84 1.11,-7.99 0,-3.14 -0.38,-5.81 -1.14,-7.98 -0.76,-2.18 -1.77,-3.8 -3.03,-4.87 -1.26,-1.07 -2.63,-1.61 -4.11,-1.61 -1.56,0 -2.96,0.54 -4.2,1.61 -1.24,1.07 -2.24,2.69 -2.97,4.87 -0.74,2.17 -1.11,4.84 -1.11,7.98 0,3.15 0.38,5.82 1.14,7.99 0.75,2.18 1.76,3.8 3.03,4.87 1.26,1.07 2.63,1.61 4.11,1.61zm49.56 5.94l-6.88 0 0 -32.53 -4.6 21.16 -6.19 0 -4.6 -21.16 0 32.53 -6.88 0 0 -40.82 10.38 0 4.31 23.21 4.32 -23.21 10.14 0 0 40.82zm34.99 0l-6.88 0 0 -32.53 -4.61 21.16 -6.18 0 -4.61 -21.16 0 32.53 -6.88 0 0 -40.82 10.38 0 4.32 23.21 4.31 -23.21 10.15 0 0 40.82zm33.7 -40.82l0 27.94c0,2.48 -0.52,4.76 -1.57,6.82 -1.05,2.06 -2.57,3.68 -4.58,4.87 -2,1.18 -4.38,1.78 -7.14,1.78 -2.76,0 -5.14,-0.6 -7.14,-1.78 -2.01,-1.19 -3.53,-2.81 -4.58,-4.87 -1.05,-2.06 -1.58,-4.34 -1.58,-6.82l0 -27.94 6.89 0 0 27.3c0,2.33 0.55,4.17 1.66,5.53 1.1,1.37 2.69,2.05 4.75,2.05 2.06,0 3.64,-0.68 4.75,-2.05 1.11,-1.36 1.66,-3.2 1.66,-5.53l0 -27.3 6.88 0zm35.4 0l0 40.82 -10.61 0 -10.27 -32.94 0 32.94 -6.53 0 0 -40.82 10.62 0 10.26 32.95 0 -32.95 6.53 0zm34.46 34.29l0 6.53 -26.35 0 0 -6.53 9.73 0 0 -27.75 -9.33 0 0 -6.54 25.54 0 0 6.54 -9.33 0 0 27.75 9.74 0zm36.68 -27.75l-11.43 0 0 34.28 -6.88 0 0 -34.28 -11.43 0 0 -6.54 29.74 0 0 6.54zm35.92 -6.54l-12.36 26.13 0 14.69 -6.88 0 0 -14.69 -12.37 -26.13 7.76 0 8.16 18.96 8.11 -18.96 7.58 0z"/>
  <path class="fil2" d="M0 0l385.38 0 0 385.38 -385.38 0 0 -385.38zm235.19 314.63c20.91,0 39.31,-4.64 55.22,-13.94 15.92,-9.28 28.35,-23.05 37.28,-41.28 8.95,-18.23 13.42,-40.48 13.42,-66.72 0,-26.24 -4.47,-48.49 -13.42,-66.72 -8.93,-18.23 -21.36,-31.99 -37.28,-41.28 -15.91,-9.3 -34.31,-13.94 -55.22,-13.94l-21.94 0 -41.12 0 -21.94 0c-20.9,0 -39.31,4.64 -55.22,13.94 -15.92,9.29 -28.34,23.05 -37.28,41.28 -8.95,18.23 -13.42,40.48 -13.42,66.72 0,26.24 4.47,48.49 13.42,66.72 8.94,18.23 21.36,32 37.28,41.28 15.91,9.3 34.32,13.94 55.22,13.94l21.94 0 41.12 0 21.94 0zm-63.06 -204.86l0 165.84 -17.42 0c-21.13,0 -37.97,-7.08 -50.51,-21.25 -12.55,-14.17 -18.82,-34.73 -18.82,-61.67 0,-27.17 6.16,-47.79 18.47,-61.84 12.31,-14.05 29.27,-21.08 50.86,-21.08l17.42 0zm58.54 0c21.6,0 38.55,7.03 50.86,21.08 12.31,14.05 18.47,34.67 18.47,61.84 0,26.94 -6.27,47.5 -18.82,61.67 -12.54,14.17 -29.38,21.25 -50.51,21.25l-17.42 0 0 -165.84 17.42 0z"/>
 </g>
</svg>
