<?xml version="1.0" encoding="UTF-8"?>
<!DOCTYPE svg PUBLIC "-//W3C//DTD SVG 1.1//EN" "http://www.w3.org/Graphics/SVG/1.1/DTD/svg11.dtd">
<!-- Creator: CorelDRAW -->
<svg xmlns="http://www.w3.org/2000/svg" xml:space="preserve" width="30px" height="30px" version="1.1" style="shape-rendering:geometricPrecision; text-rendering:geometricPrecision; image-rendering:optimizeQuality; fill-rule:evenodd; clip-rule:evenodd"
viewBox="0 0 0.57 0.57"
 xmlns:xlink="http://www.w3.org/1999/xlink"
 xmlns:xodm="http://www.corel.com/coreldraw/odm/2003">
 <defs>
  <style type="text/css">
   <![CDATA[
    .fil0 {fill:#4520AB;fill-rule:nonzero}
   ]]>
  </style>
 </defs>
 <g id="????_x0020_1">
  <metadata id="CorelCorpID_0Corel-Layer"/>
  <path class="fil0" d="M0.29 0c-0.16,0 -0.29,0.13 -0.29,0.29 0,0.15 0.13,0.28 0.29,0.28 0.15,0 0.28,-0.13 0.28,-0.28 0,-0.16 -0.13,-0.29 -0.28,-0.29zm-0.15 0.36c-0.01,-0.02 -0.02,-0.05 -0.02,-0.07 0,-0.03 0.01,-0.06 0.02,-0.08 0.03,-0.05 0.08,-0.09 0.15,-0.09 0.03,0 0.07,0.02 0.1,0.04l-0.05 0.04c-0.02,-0.01 -0.04,-0.01 -0.05,-0.01 -0.05,0 -0.08,0.03 -0.1,0.06 0,0.01 0,0.02 0,0.04 0,0.01 0,0.02 0.01,0.03 0.01,0.04 0.04,0.06 0.09,0.06 0.01,0 0.03,0 0.04,-0.01 0.02,-0.01 0.04,-0.03 0.04,-0.05l-0.08 0 0 -0.07 0.09 0 0.06 0 0 0c0.01,0.01 0.01,0.02 0.01,0.04 0,0.01 0,0.02 -0.01,0.03 0,0.04 -0.03,0.07 -0.05,0.09 -0.03,0.02 -0.07,0.04 -0.1,0.04 -0.07,0 -0.12,-0.04 -0.15,-0.09zm0 -0.15l0 0z"/>
 </g>
</svg>
