<?xml version="1.0" encoding="UTF-8"?>
<!DOCTYPE svg PUBLIC "-//W3C//DTD SVG 1.1//EN" "http://www.w3.org/Graphics/SVG/1.1/DTD/svg11.dtd">
<!-- Creator: CorelDRAW -->
<svg xmlns="http://www.w3.org/2000/svg" xml:space="preserve" width="30px" height="30px" version="1.1" style="shape-rendering:geometricPrecision; text-rendering:geometricPrecision; image-rendering:optimizeQuality; fill-rule:evenodd; clip-rule:evenodd"
viewBox="0 0 0.88 0.88"
 xmlns:xlink="http://www.w3.org/1999/xlink"
 xmlns:xodm="http://www.corel.com/coreldraw/odm/2003">
 <defs>
  <style type="text/css">
   <![CDATA[
    .fil0 {fill:#4520AB;fill-rule:nonzero}
    .fil1 {fill:#E6E6E6;fill-rule:nonzero}
   ]]>
  </style>
 </defs>
 <g id="????_x0020_1">
  <metadata id="CorelCorpID_0Corel-Layer"/>
  <g id="_105553244407712">
   <circle class="fil0" cx="0.44" cy="0.44" r="0.44"/>
   <path class="fil1" d="M0.7 0.48l0 0.18 -0.1 0 0 -0.17c0,-0.04 -0.02,-0.07 -0.05,-0.07 -0.03,0 -0.05,0.02 -0.06,0.03 0,0.01 0,0.02 0,0.03l0 0.18 -0.11 0c0,0 0,-0.29 0,-0.32l0.11 0 0 0.05c0,0 0,0 0,0l0 0 0 0c0.01,-0.03 0.04,-0.06 0.09,-0.06 0.07,0 0.12,0.05 0.12,0.15l0 0zm-0.43 -0.29c-0.03,0 -0.06,0.02 -0.06,0.05 0,0.03 0.03,0.06 0.06,0.06l0 0c0.04,0 0.06,-0.03 0.06,-0.06 0,-0.03 -0.02,-0.05 -0.06,-0.05l0 0zm-0.05 0.47l0.1 0 0 -0.32 -0.1 0 0 0.32z"/>
  </g>
 </g>
</svg>
