<?xml version="1.0" encoding="UTF-8"?>
<!DOCTYPE svg PUBLIC "-//W3C//DTD SVG 1.1//EN" "http://www.w3.org/Graphics/SVG/1.1/DTD/svg11.dtd">
<!-- Creator: CorelDRAW -->
<svg xmlns="http://www.w3.org/2000/svg" xml:space="preserve" width="30px" height="30px" version="1.1" style="shape-rendering:geometricPrecision; text-rendering:geometricPrecision; image-rendering:optimizeQuality; fill-rule:evenodd; clip-rule:evenodd"
viewBox="0 0 1.1 1.1"
 xmlns:xlink="http://www.w3.org/1999/xlink"
 xmlns:xodm="http://www.corel.com/coreldraw/odm/2003">
 <defs>
  <style type="text/css">
   <![CDATA[
    .fil0 {fill:#4520AB;fill-rule:nonzero}
   ]]>
  </style>
 </defs>
 <g id="????_x0020_1">
  <metadata id="CorelCorpID_0Corel-Layer"/>
  <path class="fil0" d="M1.1 0.55c0,-0.3 -0.24,-0.55 -0.55,-0.55 -0.3,0 -0.55,0.25 -0.55,0.55 0,0.31 0.25,0.55 0.55,0.55 0.31,0 0.55,-0.24 0.55,-0.55zm-0.85 0c0.16,-0.07 0.27,-0.12 0.32,-0.14 0.16,-0.07 0.19,-0.08 0.21,-0.08 0,0 0.01,0 0.02,0.01 0,0 0.01,0.01 0.01,0.01 0,0.01 0,0.02 0,0.03 -0.01,0.08 -0.05,0.29 -0.06,0.39 -0.01,0.04 -0.03,0.06 -0.04,0.06 -0.03,0 -0.06,-0.02 -0.09,-0.04 -0.05,-0.03 -0.08,-0.05 -0.12,-0.09 -0.06,-0.03 -0.02,-0.05 0.01,-0.08 0.01,-0.01 0.15,-0.14 0.15,-0.15 0,0 0,-0.01 0,-0.01 0,0 -0.01,0 -0.01,0 -0.01,0 -0.09,0.05 -0.24,0.15 -0.02,0.02 -0.04,0.02 -0.06,0.02 -0.02,0 -0.05,-0.01 -0.08,-0.02 -0.04,-0.01 -0.06,-0.01 -0.06,-0.03 0,-0.01 0.01,-0.02 0.04,-0.03z"/>
 </g>
</svg>
