<?xml version="1.0" encoding="UTF-8"?>
<!DOCTYPE svg PUBLIC "-//W3C//DTD SVG 1.1//EN" "http://www.w3.org/Graphics/SVG/1.1/DTD/svg11.dtd">
<!-- Creator: CorelDRAW -->
<svg xmlns="http://www.w3.org/2000/svg" xml:space="preserve" width="30px" height="30px" version="1.1" style="shape-rendering:geometricPrecision; text-rendering:geometricPrecision; image-rendering:optimizeQuality; fill-rule:evenodd; clip-rule:evenodd"
viewBox="0 0 1.31 1.31"
 xmlns:xlink="http://www.w3.org/1999/xlink"
 xmlns:xodm="http://www.corel.com/coreldraw/odm/2003">
 <defs>
  <style type="text/css">
   <![CDATA[
    .fil0 {fill:#4520AB;fill-rule:nonzero}
   ]]>
  </style>
 </defs>
 <g id="????_x0020_1">
  <metadata id="CorelCorpID_0Corel-Layer"/>
  <path class="fil0" d="M0.66 0c-0.36,0 -0.66,0.3 -0.66,0.66 0,0.36 0.3,0.65 0.66,0.65 0.36,0 0.65,-0.29 0.65,-0.65 0,-0.36 -0.29,-0.66 -0.65,-0.66zm0.39 0.93l-0.1 0c-0.04,0 -0.04,-0.02 -0.11,-0.08 -0.05,-0.06 -0.07,-0.06 -0.08,-0.06 -0.02,0 -0.02,0 -0.02,0.02l0 0.08c0,0.03 -0.02,0.04 -0.08,0.04 -0.09,0 -0.19,-0.06 -0.27,-0.17 -0.12,-0.15 -0.15,-0.27 -0.15,-0.29 0,-0.02 0.01,-0.03 0.02,-0.03l0.1 0c0.03,0 0.03,0.01 0.05,0.03 0.04,0.13 0.12,0.25 0.15,0.25 0.01,0 0.01,-0.01 0.01,-0.04l0 -0.13c0,-0.06 -0.03,-0.06 -0.03,-0.09 0,-0.01 0.01,-0.01 0.02,-0.01l0.15 0c0.02,0 0.03,0 0.03,0.03l0 0.18c0,0.02 0,0.02 0.01,0.02 0.01,0 0.02,0 0.04,-0.02 0.06,-0.08 0.11,-0.18 0.11,-0.18 0.01,-0.01 0.01,-0.03 0.04,-0.03 0.03,0 0.1,0 0.1,0 0.01,0 0.02,0.01 0.01,0.03 -0.01,0.05 -0.12,0.2 -0.12,0.2 -0.01,0.02 -0.01,0.03 0,0.04 0.02,0.02 0.04,0.04 0.06,0.07 0.05,0.05 0.08,0.09 0.08,0.12 0.01,0.02 -0.01,0.02 -0.02,0.02z"/>
 </g>
</svg>
